<svg xmlns="http://www.w3.org/2000/svg" viewBox="0 0 272.52 272.52"><defs><style>.cls-1{fill:#333;}</style></defs><g id="Layer_2" data-name="Layer 2"><g id="Layer_1-2" data-name="Layer 1"><path class="cls-1" d="M159.31,110.85c-5,10.73-23.2,50-23.41,50.5a15.09,15.09,0,0,1-6.9,6.93c-6.89,2.72-11.63.94-14.63-1.48a4.28,4.28,0,0,1-1.17-5.13c5-10.73,23.19-50,23.42-50.5,2.64-5.5,6.6-6.81,6.9-6.93,6.88-2.72,11.62-.95,14.62,1.48A4.28,4.28,0,0,1,159.31,110.85Z"/><path class="cls-1" d="M136.26,0A136.26,136.26,0,1,0,272.52,136.26,136.26,136.26,0,0,0,136.26,0Zm88.51,147.08L138,187.57a35.46,35.46,0,0,1-35.4-3.13l-4.67-3.93-7.31-7.31a8.63,8.63,0,0,1-1.72-9.74L107,124.68a1.73,1.73,0,0,0-2.29-2.3L65.9,140.47a8.61,8.61,0,0,1-9.74-1.72L47,129.61a2.58,2.58,0,0,1,.73-4.17L134.52,85A35.5,35.5,0,0,1,174.6,92l7.31,7.31a8.61,8.61,0,0,1,1.71,9.74l-18.08,38.78a1.73,1.73,0,0,0,2.29,2.3l38.79-18.09a8.62,8.62,0,0,1,9.74,1.72l9.14,9.14A2.59,2.59,0,0,1,224.77,147.08Z"/></g></g></svg>