<svg xmlns="http://www.w3.org/2000/svg" viewBox="0 0 235.65 143.06"><defs><style>.cls-1{fill:#fff;}</style></defs><g id="Layer_2" data-name="Layer 2"><g id="Layer_1-2" data-name="Layer 1"><path class="cls-1" d="M209.94,66,159.15,89.7a2.26,2.26,0,0,1-3-3l23.68-50.78a11.28,11.28,0,0,0-2.24-12.75L168,13.61a44.72,44.72,0,0,0-6.13-5.15,46.41,46.41,0,0,0-46.34-4.1L2,57.36a3.38,3.38,0,0,0-1,5.46l12,12A11.27,11.27,0,0,0,25.71,77L76.49,53.36a2.26,2.26,0,0,1,3,3L55.82,107.14a11.28,11.28,0,0,0,2.24,12.75l9.57,9.57,6.12,5.14a46.4,46.4,0,0,0,46.35,4.1l113.6-53a3.39,3.39,0,0,0,1-5.46l-12-12A11.27,11.27,0,0,0,209.94,66Zm-92.59,38.35a19.75,19.75,0,0,1-9,9.08c-9,3.56-15.22,1.24-19.15-1.94a5.6,5.6,0,0,1-1.53-6.72c6.51-14,30.36-65.49,30.65-66.1,3.46-7.21,8.64-8.92,9-9.08,9-3.56,15.22-1.24,19.15,1.94A5.61,5.61,0,0,1,148,38.27C141.49,52.31,117.63,103.75,117.35,104.37Z"/></g></g></svg>