<svg width="35" height="35" viewBox="0 0 35 35" fill="none" xmlns="http://www.w3.org/2000/svg">
<path fill-rule="evenodd" clip-rule="evenodd" d="M23.5 8H11.5C5.70101 8 1 12.4772 1 18C1 23.5228 5.70101 28 11.5 28H23.5C29.299 28 34 23.5228 34 18C34 12.4772 29.299 8 23.5 8ZM16.7083 18.5C16.7083 21.5376 19.1707 24 22.2083 24C25.2459 24 27.7083 21.5376 27.7083 18.5C27.7083 15.4624 25.2459 13 22.2083 13C19.1707 13 16.7083 15.4624 16.7083 18.5Z" fill="white"/>
<path d="M11.5 7.2H23.5V8.8H11.5V7.2ZM0.2 18C0.2 11.999 5.29641 7.2 11.5 7.2V8.8C6.10561 8.8 1.8 12.9553 1.8 18H0.2ZM11.5 28.8C5.29641 28.8 0.2 24.001 0.2 18H1.8C1.8 23.0447 6.10561 27.2 11.5 27.2V28.8ZM23.5 28.8H11.5V27.2H23.5V28.8ZM34.8 18C34.8 24.001 29.7036 28.8 23.5 28.8V27.2C28.8944 27.2 33.2 23.0447 33.2 18H34.8ZM23.5 7.2C29.7036 7.2 34.8 11.999 34.8 18H33.2C33.2 12.9553 28.8944 8.8 23.5 8.8V7.2ZM22.2083 24.8C18.7289 24.8 15.9083 21.9794 15.9083 18.5H17.5083C17.5083 21.0957 19.6126 23.2 22.2083 23.2V24.8ZM28.5083 18.5C28.5083 21.9794 25.6877 24.8 22.2083 24.8V23.2C24.8041 23.2 26.9083 21.0957 26.9083 18.5H28.5083ZM22.2083 12.2C25.6877 12.2 28.5083 15.0206 28.5083 18.5H26.9083C26.9083 15.9043 24.8041 13.8 22.2083 13.8V12.2ZM15.9083 18.5C15.9083 15.0206 18.7289 12.2 22.2083 12.2V13.8C19.6126 13.8 17.5083 15.9043 17.5083 18.5H15.9083Z" fill="white"/>
</svg>
