<svg width="657" height="396" viewBox="0 0 657 396" fill="none" xmlns="http://www.w3.org/2000/svg">
<path d="M71.4174 366.105C71.4725 369.645 70.5659 373.132 68.7947 376.194C67.0236 379.256 64.4547 381.777 61.3635 383.486C55.9363 387.24 49.5742 389.407 42.9891 389.743C35.2113 390.047 27.4468 388.867 20.1078 386.267C15.2232 384.396 10.8339 381.423 7.28041 377.577C4.4398 374.407 2.41635 370.588 1.38675 366.453C0.477237 362.697 0.0117861 358.847 0 354.982C0.324931 345.688 3.46946 336.714 9.01385 329.258C11.4727 325.204 14.936 321.857 19.0671 319.542C23.1981 317.228 27.8563 316.024 32.5885 316.049C36.4231 316.103 40.2478 316.451 44.0292 317.092C48.7375 317.933 53.1532 319.967 56.8566 323.001C61.5537 326.999 65.1371 332.149 67.2572 337.949C70.4044 346.987 71.816 356.541 71.4174 366.105Z" fill="white"/>
<path d="M422.021 30.3118C419.653 36.4039 416.873 42.327 413.701 48.04C410.943 52.581 407.812 56.8831 404.34 60.9017C400.423 65.5249 395.084 71.3301 388.393 77.9347C381.702 84.5393 372.099 94.7244 359.618 108.177C349.911 118.35 341.821 126.925 335.35 133.9C328.878 140.876 322.522 147.225 316.282 152.949C310.042 158.755 303.697 164.525 297.214 170.33C291.667 175.266 284.976 181.176 277.072 187.989C275.784 189.087 274.746 190.45 274.028 191.986C273.311 193.521 272.93 195.192 272.912 196.888C272.912 203.179 272.6 210.445 272.253 218.648C271.814 229.308 271.583 241.591 271.559 255.495C271.559 259.215 271.802 263.942 272.253 269.747C272.704 275.552 273.293 281.462 273.986 287.475C274.68 293.489 275.269 299.294 275.72 304.856C276.17 310.418 276.413 314.589 276.413 317.37V321.541C276.864 330.823 277.349 340.556 277.8 350.741C278.216 360.231 278.875 370.138 279.707 380.462C279.865 382.255 279.616 384.062 278.979 385.745C276.205 392.512 269.341 395.907 258.385 395.93C255.54 396.078 252.697 395.594 250.06 394.512C247.424 393.431 245.057 391.778 243.131 389.673C239.046 384.74 236.194 378.901 234.811 372.64C232.824 364.541 231.548 356.283 230.997 347.96C230.304 338.69 229.957 328.957 229.957 318.761C229.957 315.041 229.957 311.565 230.304 308.332C230.304 305.76 230.754 303.466 231.066 301.38C231.188 300.387 231.188 299.383 231.066 298.39C228.478 261.683 227.184 233.503 227.184 213.851V207.664C227.17 204.523 225.925 201.514 223.717 199.286C216.529 191.917 208.07 182.751 198.339 171.79L159.094 127.643C158.286 126.716 157.62 125.674 157.118 124.55C154.232 118.524 150.748 112.806 146.718 107.482C141.633 100.529 136.433 93.809 131.117 87.3202C125.801 80.8315 121.063 74.8062 116.903 69.2444C112.742 63.6826 110.662 59.5112 110.662 56.7303C111.097 50.5952 113.675 44.8101 117.943 40.3926C119.924 37.7388 122.485 35.5757 125.43 34.0692C128.375 32.5627 131.625 31.753 134.93 31.7023C143.713 31.7023 152.265 37.8434 160.585 50.1257C168.906 62.408 178.983 77.7725 190.816 96.2191C191.429 97.1476 192.164 97.9894 193 98.7219C194.757 100.205 197.704 103.125 201.841 107.482C207.157 113.044 212.935 118.953 219.175 125.21C225.415 131.467 231.425 137.376 237.203 142.938L240.67 146.414C242.771 148.295 245.468 149.372 248.284 149.455C251.1 149.537 253.855 148.621 256.063 146.866L258.212 145.128L275.2 131.224C281.44 126.125 287.449 121.259 293.227 116.624C299.017 112.001 302.831 108.976 304.668 107.586C306.993 105.601 308.983 103.254 310.562 100.634C313.092 96.9143 316.005 92.6387 319.229 87.7721C322.453 82.9055 326.163 78.039 329.976 73.1724C332.988 69.2683 336.483 65.7641 340.377 62.744C341.467 61.9348 342.426 60.9616 343.22 59.8588L367.002 25.4105C372.719 16.9157 379.592 9.26369 387.422 2.67662C389.498 0.99255 392.077 0.0536751 394.747 0.00957722C397.418 -0.0345207 400.026 0.818696 402.156 2.43329C405.172 4.76229 408.154 7.29986 411.17 10.0808C414.15 12.8244 416.719 15.9856 418.797 19.4663C420.659 22.2572 421.736 25.4992 421.917 28.8518L422.021 30.3118Z" fill="white"/>
<path d="M639.359 396H637.279C633.449 395.871 629.629 395.523 625.838 394.957C620.499 394.262 614.744 393.567 608.504 392.871L590.476 390.786C586.222 390.208 581.94 389.859 577.649 389.743C570.715 389.743 562.256 389.256 552.341 388.353C542.426 387.449 532.788 386.371 523.566 385.224L498.951 382.095C493.577 381.4 489.799 380.948 487.684 380.775C486.582 380.697 485.496 380.463 484.46 380.079C463.658 372.038 448.913 362.293 440.222 350.845C439.071 349.347 438.339 347.569 438.102 345.693C437.864 343.818 438.129 341.912 438.87 340.173C444.885 327.917 452.072 316.276 460.33 305.412C460.873 304.647 461.514 303.958 462.237 303.361C477.54 290.134 491.819 275.759 504.949 260.362C505.33 259.933 505.748 259.537 506.197 259.18C523.462 245.02 538.612 231.417 551.647 218.37C559.404 210.692 566.708 202.567 573.523 194.037C574.661 192.537 575.391 190.766 575.644 188.898C575.896 187.03 575.662 185.129 574.964 183.379C574.266 181.629 573.127 180.09 571.66 178.912C570.192 177.734 568.445 176.957 566.59 176.657H565.55C557.385 175.638 549.162 175.173 540.935 175.266C539.999 175.266 536.775 175.614 531.228 176.309C525.681 177.004 519.44 177.699 512.507 178.395C505.573 179.09 498.639 179.681 491.359 180.133C484.078 180.585 478.289 180.828 473.678 180.828C465.357 179.437 461.197 171.79 461.197 157.886C461.1 153.702 461.332 149.518 461.89 145.371C462.341 142.591 464.768 140.401 469.171 138.767C476.058 136.58 483.14 135.067 490.319 134.248C499.887 132.857 513.755 131.038 531.921 128.79C532.417 128.756 532.915 128.756 533.412 128.79C549.209 129.073 564.962 130.584 580.526 133.309C597.213 136.057 613.661 140.101 629.721 145.406C631.645 146.051 633.35 147.223 634.643 148.79C635.936 150.356 636.765 152.255 637.036 154.27C637.686 158.726 638.033 163.22 638.076 167.723C638.023 173.981 636.603 180.151 633.916 185.799C631.221 191.659 627.97 197.247 624.209 202.484C620.691 207.356 616.87 212 612.768 216.389C609.301 219.865 606.389 222.924 603.858 225.149C603.102 225.796 602.437 226.545 601.882 227.373C599.085 231.456 596.003 235.336 592.66 238.983C588.269 243.85 583.762 248.601 579.14 253.236C574.798 257.603 570.165 261.667 565.272 265.402C562.443 267.606 559.414 269.538 556.224 271.172C554.885 271.828 553.703 272.765 552.757 273.919C549.16 277.868 545.316 281.584 541.247 285.042C535.457 290.361 529.459 296.061 523.219 302.075C516.979 308.089 511.189 313.894 505.885 319.456C504.589 320.835 503.675 322.53 503.234 324.372C502.792 326.215 502.838 328.141 503.367 329.96C503.896 331.779 504.889 333.428 506.249 334.744C507.609 336.06 509.288 336.997 511.12 337.462C517.452 339.042 523.863 340.283 530.326 341.182C544.887 343.267 559.679 344.774 574.702 345.7C589.725 346.627 603.13 347.323 614.918 347.786C626.705 348.238 633.5 348.481 635.372 348.481H636.932C638.642 348.459 640.331 348.853 641.855 349.629C646.236 351.673 649.925 354.957 652.469 359.077C655.013 363.196 656.3 367.971 656.173 372.814C656.058 385.491 650.453 393.219 639.359 396Z" fill="white"/>
</svg>
